<?xml version="1.0" encoding="UTF-8"?>
<svg xmlns="http://www.w3.org/2000/svg" width="512" height="512" viewBox="0 0 512 512" role="img" aria-label="TradePilot">
  <defs>
    <linearGradient id="bg" x1="0" y1="0" x2="1" y2="1">
      <stop offset="0%" stop-color="#0b0f17"/>
      <stop offset="100%" stop-color="#1a2233"/>
    </linearGradient>
    <linearGradient id="brand" x1="0" y1="0" x2="1" y2="1">
      <stop offset="0%" stop-color="#60a5fa"/>
      <stop offset="100%" stop-color="#3b82f6"/>
    </linearGradient>
  </defs>
  <rect width="512" height="512" rx="96" fill="url(#bg)"/>
  <g stroke="url(#brand)" stroke-width="14" stroke-linecap="round" fill="none">
    <line x1="128" y1="160" x2="128" y2="352"/>
    <line x1="216" y1="120" x2="216" y2="392"/>
    <line x1="304" y1="148" x2="304" y2="332"/>
    <line x1="384" y1="92" x2="384" y2="312"/>
  </g>
  <g fill="url(#brand)">
    <rect x="104" y="200" width="52" height="108" rx="8"/>
    <rect x="192" y="160" width="52" height="172" rx="8"/>
    <rect x="280" y="190" width="52" height="108" rx="8"/>
    <rect x="360" y="140" width="52" height="128" rx="8"/>
  </g>
  <path d="M104 372 L216 268 L304 308 L412 160" stroke="#22c55e" stroke-width="14" fill="none" stroke-linecap="round" stroke-linejoin="round"/>
  <circle cx="412" cy="160" r="16" fill="#22c55e"/>
  <text x="256" y="470" text-anchor="middle" font-family="system-ui, -apple-system, sans-serif" font-size="40" font-weight="700" fill="#e5e7eb">TradePilot</text>
</svg>
