<?xml version="1.0" encoding="UTF-8"?>
<svg xmlns="http://www.w3.org/2000/svg" width="192" height="192" viewBox="0 0 192 192" role="img" aria-label="TradePilot">
  <defs>
    <linearGradient id="bg" x1="0" y1="0" x2="1" y2="1">
      <stop offset="0%" stop-color="#0b0f17"/>
      <stop offset="100%" stop-color="#1a2233"/>
    </linearGradient>
    <linearGradient id="brand" x1="0" y1="0" x2="1" y2="1">
      <stop offset="0%" stop-color="#60a5fa"/>
      <stop offset="100%" stop-color="#3b82f6"/>
    </linearGradient>
  </defs>
  <rect width="192" height="192" rx="40" fill="url(#bg)"/>
  <!-- 캔들 차트 모티브 -->
  <g stroke="url(#brand)" stroke-width="6" stroke-linecap="round" fill="none">
    <line x1="48" y1="60" x2="48" y2="132"/>
    <line x1="80" y1="44" x2="80" y2="148"/>
    <line x1="112" y1="56" x2="112" y2="124"/>
    <line x1="144" y1="36" x2="144" y2="116"/>
  </g>
  <g fill="url(#brand)">
    <rect x="38" y="76" width="20" height="40" rx="3"/>
    <rect x="70" y="60" width="20" height="64" rx="3"/>
    <rect x="102" y="72" width="20" height="40" rx="3"/>
    <rect x="134" y="52" width="20" height="48" rx="3"/>
  </g>
  <!-- 추세 화살표 -->
  <path d="M40 140 L80 100 L112 116 L156 60" stroke="#22c55e" stroke-width="5" fill="none" stroke-linecap="round" stroke-linejoin="round"/>
  <circle cx="156" cy="60" r="6" fill="#22c55e"/>
  <!-- 브랜드 텍스트 (작게) -->
  <text x="96" y="178" text-anchor="middle" font-family="system-ui, -apple-system, sans-serif" font-size="14" font-weight="700" fill="#e5e7eb">TradePilot</text>
</svg>
